<?xml version="1.0" encoding="UTF-8" standalone="no"?>
<svg
   xmlns:dc="http://purl.org/dc/elements/1.1/"
   xmlns:cc="http://creativecommons.org/ns#"
   xmlns:rdf="http://www.w3.org/1999/02/22-rdf-syntax-ns#"
   xmlns:svg="http://www.w3.org/2000/svg"
   xmlns="http://www.w3.org/2000/svg"
   xmlns:sodipodi="http://sodipodi.sourceforge.net/DTD/sodipodi-0.dtd"
   xmlns:inkscape="http://www.inkscape.org/namespaces/inkscape"
   width="1024"
   height="1024"
   viewBox="0 0 270.93333 270.93334"
   version="1.1"
   id="svg123"
   inkscape:version="1.0.2 (e86c870879, 2021-01-15)"
   sodipodi:docname="locked.svg"
   inkscape:export-filename="/home/goghi/fet-icons/locked.png"
   inkscape:export-xdpi="12"
   inkscape:export-ydpi="12">
  <defs
     id="defs117" />
  <sodipodi:namedview
     id="base"
     pagecolor="#ffffff"
     bordercolor="#666666"
     borderopacity="1.0"
     inkscape:pageopacity="0.0"
     inkscape:pageshadow="2"
     inkscape:zoom="0.35"
     inkscape:cx="-254.28572"
     inkscape:cy="578.57143"
     inkscape:document-units="mm"
     inkscape:current-layer="layer1"
     inkscape:document-rotation="0"
     showgrid="false"
     units="px"
     inkscape:window-width="1920"
     inkscape:window-height="1007"
     inkscape:window-x="0"
     inkscape:window-y="0"
     inkscape:window-maximized="1" />
  <metadata
     id="metadata120">
    <rdf:RDF>
      <cc:Work
         rdf:about="">
        <dc:format>image/svg+xml</dc:format>
        <dc:type
           rdf:resource="http://purl.org/dc/dcmitype/StillImage" />
        <dc:title></dc:title>
      </cc:Work>
    </rdf:RDF>
  </metadata>
  <g
     inkscape:label="Layer 1"
     inkscape:groupmode="layer"
     id="layer1">
    <g
       id="g203"
       transform="matrix(2.0428228,0,0,2.0428228,-116.25045,5.7475782)"
       style="stroke-width:4.14459182;stroke-miterlimit:4;stroke-dasharray:none">
      <path
         d="m 92.220239,97.247308 a 10,10 0 0 0 0,19.999982"
         style="fill:none;stroke:#000000;stroke-width:4.14459182;stroke-linecap:round;stroke-miterlimit:4;stroke-dasharray:none"
         id="path43" />
      <path
         d="m 154.22024,117.24729 a 10,10 0 0 0 0,-19.999982"
         style="fill:none;stroke:#000000;stroke-width:4.14459182;stroke-linecap:round;stroke-miterlimit:4;stroke-dasharray:none"
         id="path45" />
      <path
         d="m 92.220239,74.247296 a 10.000001,10.000001 0 0 0 0,20.000002"
         style="fill:none;stroke:#000000;stroke-width:4.14459182;stroke-linecap:round;stroke-miterlimit:4;stroke-dasharray:none"
         id="path47" />
      <path
         d="m 154.22024,94.247298 a 10.000001,10.000001 0 0 0 0,-20.000002"
         style="fill:none;stroke:#000000;stroke-width:4.14459182;stroke-linecap:round;stroke-miterlimit:4;stroke-dasharray:none"
         id="path49" />
      <path
         d="m 92.220239,51.247297 a 10,10 0 0 0 0,20"
         style="fill:none;stroke:#000000;stroke-width:4.14459182;stroke-linecap:round;stroke-miterlimit:4;stroke-dasharray:none"
         id="path51" />
      <path
         d="m 153.22024,71.247297 a 10,10 0 0 0 0,-20"
         style="fill:none;stroke:#000000;stroke-width:4.14459182;stroke-linecap:round;stroke-miterlimit:4;stroke-dasharray:none"
         id="path53" />
      <path
         d="M 92.220239,97.247308 H 154.22024"
         style="fill:none;stroke:#000000;stroke-width:4.14459182;stroke-linecap:round;stroke-miterlimit:4;stroke-dasharray:none"
         id="path55" />
      <path
         d="M 92.220239,74.247296 H 154.22024"
         style="fill:none;stroke:#000000;stroke-width:4.14459182;stroke-linecap:round;stroke-miterlimit:4;stroke-dasharray:none"
         id="path57" />
      <path
         d="M 92.220239,51.247297 H 153.22024"
         style="fill:none;stroke:#000000;stroke-width:4.14459182;stroke-linecap:round;stroke-miterlimit:4;stroke-dasharray:none"
         id="path59" />
      <path
         d="M 154.22024,117.24729 H 92.220239"
         style="fill:none;stroke:#000000;stroke-width:4.14459182;stroke-linecap:round;stroke-miterlimit:4;stroke-dasharray:none"
         id="path61" />
      <path
         d="M 154.22024,94.247298 H 92.220239"
         style="fill:none;stroke:#000000;stroke-width:4.14459182;stroke-linecap:round;stroke-miterlimit:4;stroke-dasharray:none"
         id="path63" />
      <path
         d="M 153.22024,71.247297 H 92.220239"
         style="fill:none;stroke:#000000;stroke-width:4.14459182;stroke-linecap:round;stroke-miterlimit:4;stroke-dasharray:none"
         id="path65" />
      <path
         d="M 95.220239,51.247297 V 37.247299"
         style="fill:none;stroke:#000000;stroke-width:4.14459182;stroke-linecap:round;stroke-miterlimit:4;stroke-dasharray:none"
         id="path67" />
      <path
         d="M 135.22024,51.247297 V 37.247299"
         style="fill:none;stroke:#000000;stroke-width:4.14459182;stroke-linecap:round;stroke-miterlimit:4;stroke-dasharray:none"
         id="path69" />
      <path
         d="M 110.22024,51.247297 V 37.247299"
         style="fill:none;stroke:#000000;stroke-width:4.14459182;stroke-linecap:round;stroke-miterlimit:4;stroke-dasharray:none"
         id="path71" />
      <path
         d="M 150.22024,51.247297 V 37.247299"
         style="fill:none;stroke:#000000;stroke-width:4.14459182;stroke-linecap:round;stroke-miterlimit:4;stroke-dasharray:none"
         id="path73" />
      <path
         d="m 135.22024,37.247299 a 12.5,12.5 0 0 0 -25,0"
         style="fill:none;stroke:#000000;stroke-width:4.14459182;stroke-linecap:round;stroke-miterlimit:4;stroke-dasharray:none"
         id="path75" />
      <path
         d="m 150.22024,37.247299 a 27.500001,27.500001 0 0 0 -55.000001,0"
         style="fill:none;stroke:#000000;stroke-width:4.14459182;stroke-linecap:round;stroke-miterlimit:4;stroke-dasharray:none"
         id="path77" />
    </g>
    <path
       style="fill:#e6e6e6;stroke-width:91.4286;stroke-linejoin:round;stroke-miterlimit:4;stroke-dasharray:none"
       d="m 314.83038,335 c 0.95995,-63.44849 1.34573,-67.36869 8.59936,-87.38458 11.2848,-31.13959 23.97895,-50.72855 49.4274,-76.27379 37.67393,-37.81723 80.90926,-55.50015 135.90751,-55.58511 85.91926,-0.13274 158.53817,53.74226 186.31535,138.22485 4.85802,14.77533 5.93431,27.40134 7.0282,82.4472 l 1.29168,65 H 663.12851 622.85714 V 351.5692 c 0,-53.96282 -2.65169,-72.64941 -13.31263,-93.81464 -27.47595,-54.54821 -96.33965,-77.72084 -151.00018,-50.81155 -23.13962,11.3916 -47.032,36.69525 -56.07455,59.38676 -5.9827,15.01305 -6.67831,21.95942 -7.59198,75.81309 l -1.00582,59.28571 h -40.02332 -40.02332 z"
       id="path1078"
       transform="scale(0.26458333)" />
    <path
       style="fill:#e6e6e6;stroke-width:91.4286;stroke-linejoin:round;stroke-miterlimit:4;stroke-dasharray:none"
       d="m 262.85714,553.07827 c -30.45231,-6.26318 -48.57143,-28.55473 -48.57143,-59.75634 0,-14.41497 1.39428,-19.02367 9.28571,-30.69331 5.72307,-8.46311 14.14966,-16.27768 21.96313,-20.36794 l 12.6774,-6.63647 253.03687,0.75932 253.03689,0.75933 12.1068,8.21295 c 8.13249,5.51688 14.57869,13.26533 19.63683,23.60379 14.82057,30.29213 4.07894,62.55717 -25.97663,78.02713 l -14.18071,7.29898 -241.50743,0.42464 c -132.82909,0.23355 -246.00743,-0.50089 -251.50743,-1.63208 z"
       id="path1080"
       transform="scale(0.26458333)" />
    <path
       style="fill:#e6e6e6;stroke-width:91.4286;stroke-linejoin:round;stroke-miterlimit:4;stroke-dasharray:none"
       d="M 256.36702,729.10477 C 208.87292,714.16134 199.07415,651.50931 239.7499,622.85714 l 12.16834,-8.57143 254.75516,-0.80033 c 285.47022,-0.89683 270.1322,-1.94441 288.6728,19.71612 25.00485,29.21257 18.20705,70.94557 -14.70786,90.29399 l -13.49549,7.93308 -250,0.53334 c -186.22259,0.39728 -252.74901,-0.33161 -260.77583,-2.85714 z"
       id="path1082"
       transform="scale(0.26458333)" />
    <path
       style="fill:#e6e6e6;stroke-width:91.4286;stroke-linejoin:round;stroke-miterlimit:4;stroke-dasharray:none"
       d="m 253.24931,905.84636 c -29.90318,-10.74563 -47.14077,-48.07082 -35.93122,-77.80322 4.31205,-11.43734 19.32141,-26.41597 32.68191,-32.615 10.85342,-5.03578 23.95257,-5.3058 260.28794,-5.36539 178.59648,-0.045 251.60146,0.85534 258.57143,3.18897 26.09011,8.73531 44.90777,36.78183 41.47623,61.81769 -2.60458,19.00231 -13.84529,36.25065 -29.69726,45.56894 l -13.49549,7.93308 -251.42857,0.62041 c -208.444,0.51435 -253.31537,-0.0576 -262.46497,-3.34548 z"
       id="path1084"
       transform="scale(0.26458333)" />
  </g>
</svg>
